<svg width="32" height="32" viewBox="0 0 32 32" fill="none" xmlns="http://www.w3.org/2000/svg">
<path fill-rule="evenodd" clip-rule="evenodd" d="M9.39145 0.196383C6.78684 0.313913 4.5293 0.950762 2.70639 2.76613C0.877112 4.59104 0.248226 6.85771 0.130413 9.43544C0.0571782 11.0443 -0.371063 23.1992 0.870746 26.3869C1.70817 28.5374 3.35751 30.1908 5.52748 31.031C6.54004 31.4249 7.6959 31.6915 9.39145 31.7694C23.5688 32.411 28.8241 32.0617 31.0403 26.3869C31.4335 25.3767 31.7042 24.2218 31.779 22.5303C32.427 8.31543 31.674 5.23427 29.2031 2.76613C27.2432 0.81099 24.9379 -0.519917 9.39145 0.196383ZM9.52197 28.9105C7.96971 28.8406 7.12752 28.582 6.56552 28.3644C5.15177 27.8148 4.08987 26.7572 3.54379 25.3516C2.59811 22.9295 2.91176 11.4258 2.99614 9.56436C3.07892 7.74104 3.44828 6.07465 4.73466 4.78818C6.32672 3.19991 8.38365 2.42152 22.389 3.05366C24.2167 3.13624 25.8868 3.50487 27.1764 4.78818C28.7684 6.37642 29.5581 8.44935 28.9149 22.4022C28.8448 23.9507 28.5853 24.791 28.3672 25.3516C26.9264 29.0443 23.6117 29.5569 9.52197 28.9105ZM22.5435 7.50403C22.5435 8.55546 23.3984 9.41044 24.454 9.41044C25.5095 9.41044 26.366 8.55546 26.366 7.50403C26.366 6.45261 25.5095 5.5984 24.454 5.5984C23.3984 5.5984 22.5435 6.45261 22.5435 7.50403ZM7.78027 15.9821C7.78027 20.4864 11.4404 24.1382 15.9555 24.1382C20.4706 24.1382 24.1308 20.4864 24.1308 15.9821C24.1308 11.4778 20.4706 7.82828 15.9555 7.82828C11.4404 7.82828 7.78027 11.4778 7.78027 15.9821ZM10.6492 15.9821C10.6492 13.0597 13.0245 10.6887 15.9555 10.6887C18.8865 10.6887 21.2619 13.0597 21.2619 15.9821C21.2619 18.9061 18.8865 21.2778 15.9555 21.2778C13.0245 21.2778 10.6492 18.9061 10.6492 15.9821Z" fill="black"/>
</svg>
