<svg width="32" height="32" viewBox="0 0 32 32" fill="none" xmlns="http://www.w3.org/2000/svg">
<g clip-path="url(#clip0_1910_71)">
<path d="M29.7348 31.4485C30.6816 31.4485 31.4367 30.6812 31.4367 29.746V2.25402C31.4367 1.30685 30.6696 0.551514 29.7348 0.551514H2.25314C1.31831 0.551514 0.55127 1.31884 0.55127 2.25402V29.746C0.55127 30.6931 1.31831 31.4485 2.25314 31.4485H29.7348Z" fill="black"/>
<path d="M21.8607 31.4485V19.483H25.8756L26.4749 14.819H21.8607V11.8456C21.8607 10.4908 22.2322 9.57962 24.1738 9.57962H26.6427V5.39528C26.2112 5.33533 24.7491 5.21544 23.0472 5.21544C19.4876 5.21544 17.0547 7.38554 17.0547 11.378V14.819H13.0277V19.483H17.0547V31.4485H21.8607Z" fill="white"/>
</g>
<defs>
<clipPath id="clip0_1910_71">
<rect width="32" height="32" fill="white"/>
</clipPath>
</defs>
</svg>
