<svg width="100" height="40" viewBox="0 0 100 40" fill="none" xmlns="http://www.w3.org/2000/svg">
<rect width="100" height="40" fill="black"/>
<rect x="63" y="3" width="34" height="34" fill="white"/>
<rect x="75" y="10" width="9" height="10" fill="black"/>
<rect x="72" y="21" width="6" height="6" fill="black"/>
<rect x="79" y="21" width="8" height="13" fill="black"/>
<rect x="85" y="14" width="6" height="6" fill="black"/>
<rect x="71" y="12" width="3" height="8" fill="black"/>
<path d="M8.73775 25L8.46475 23.557H6.41075L6.13775 25H4.36975L6.12475 15.9H8.81575L10.4797 25H8.73775ZM7.41175 17.59L6.90475 20.619L6.61875 22.166H8.24375L7.94475 20.619L7.43775 17.59H7.41175ZM11.2368 15.9H14.6948C15.2408 16.082 15.7045 16.42 16.0858 16.914C16.4758 17.3993 16.6708 17.9973 16.6708 18.708C16.6708 19.8693 16.2115 20.723 15.2928 21.269L16.6058 25H14.7858L13.6808 21.685H12.9918V25H11.2368V15.9ZM12.9918 17.46V20.229H14.1098C14.2571 20.1943 14.4175 20.047 14.5908 19.787C14.7728 19.5183 14.8638 19.2063 14.8638 18.851C14.8638 18.4957 14.7858 18.1837 14.6298 17.915C14.4825 17.6463 14.3351 17.4947 14.1878 17.46H12.9918ZM20.0049 23.492H22.2929V25H18.9909C18.4189 24.4627 17.9856 23.7823 17.6909 22.959C17.3962 22.1357 17.2489 21.2907 17.2489 20.424C17.2489 19.5487 17.4136 18.708 17.7429 17.902C18.0722 17.096 18.5619 16.4287 19.2119 15.9H22.2929V17.46H20.0049C19.7709 17.7287 19.5672 18.162 19.3939 18.76C19.2292 19.358 19.1469 19.93 19.1469 20.476C19.1469 21.022 19.2292 21.594 19.3939 22.192C19.5672 22.79 19.7709 23.2233 20.0049 23.492ZM25.0276 25H23.2466V15.9H25.0276V19.566H27.1076V15.9H28.8886V25H27.1076V21.23H25.0276V25ZM30.1401 25V15.9H31.9211V25H30.1401ZM34.6433 17.46H32.6803V15.9H38.3743V17.46H36.4113V25H34.6433V17.46ZM39.1284 25V15.9H43.7954V17.46H40.9094V19.631H43.4834V21.139H40.9094V23.492H43.8474V25H39.1284ZM47.249 23.492H49.537V25H46.235C45.663 24.4627 45.2297 23.7823 44.935 22.959C44.6404 22.1357 44.493 21.2907 44.493 20.424C44.493 19.5487 44.6577 18.708 44.987 17.902C45.3164 17.096 45.806 16.4287 46.456 15.9H49.537V17.46H47.249C47.015 17.7287 46.8114 18.162 46.638 18.76C46.4734 19.358 46.391 19.93 46.391 20.476C46.391 21.022 46.4734 21.594 46.638 22.192C46.8114 22.79 47.015 23.2233 47.249 23.492ZM52.2717 25H50.4907V15.9H52.2717V19.566H54.3517V15.9H56.1327V25H54.3517V21.23H52.2717V25Z" fill="white"/>
<line x1="3" y1="33.5" x2="58" y2="33.5" stroke="white"/>
<line x1="3" y1="8.5" x2="58" y2="8.5" stroke="white"/>
</svg>
