<svg width="32" height="32" viewBox="0 0 32 32" fill="none" xmlns="http://www.w3.org/2000/svg">
<path d="M10.3522 0.015934C7.7046 0.213522 5.28603 1.26898 3.39492 3.05226C0.860569 5.44081 -0.351288 8.78477 0.0886857 12.1812C0.490065 15.2926 2.27311 18.0838 4.97471 19.8321C5.47128 20.1547 5.67455 20.2698 6.18399 20.5174C7.34696 21.0851 8.51507 21.4228 9.90189 21.5904C10.4345 21.6529 11.865 21.6529 12.3976 21.5904C13.4371 21.4653 14.3325 21.2452 15.2665 20.8876C15.9123 20.6424 16.8102 20.1797 17.3737 19.8046L17.5796 19.6695L20.3455 22.3532C30.2127 31.9249 30.0455 31.7623 30.1947 31.8448C30.681 32.1075 31.2522 32.0324 31.6433 31.6523C32.0241 31.2821 32.1064 30.7544 31.8594 30.2692C31.8054 30.1616 30.6707 29.0486 25.602 24.119C19.9106 18.584 19.4166 18.0963 19.4475 18.0538C19.4681 18.0288 19.5504 17.9363 19.6276 17.8462C21.4647 15.7553 22.427 13.0266 22.2803 10.3154C22.198 8.78977 21.8558 7.47419 21.1997 6.15362C20.7649 5.28074 20.3249 4.61544 19.6765 3.85261C19.4038 3.53247 18.6602 2.80966 18.3283 2.54204C16.5607 1.11892 14.5641 0.291056 12.3179 0.050951C11.8702 0.00342941 10.7793 -0.0165787 10.3522 0.015934ZM12.3591 2.38947C14.3582 2.6846 16.0975 3.54748 17.4586 4.92558C18.7863 6.26616 19.5916 7.91188 19.8515 9.80521C19.9132 10.2704 19.9132 11.3509 19.8515 11.8311C19.7125 12.8716 19.4449 13.7269 18.9715 14.6448C18.2074 16.128 16.9672 17.3985 15.4723 18.2264C12.992 19.5995 9.93277 19.702 7.3624 18.4965C4.85378 17.321 3.0733 15.085 2.54327 12.4439C2.44807 11.9637 2.41205 11.636 2.39662 11.0558C2.38118 10.4105 2.40691 9.9978 2.50468 9.42755C2.91892 6.99899 4.4138 4.84805 6.59051 3.55498C7.75606 2.85968 8.99621 2.46951 10.4808 2.32944C10.5374 2.32444 10.9028 2.32194 11.2913 2.32694C11.8496 2.33445 12.0735 2.34695 12.3591 2.38947Z" fill="black"/>
</svg>
